# xmcd CD database file
#
# Track frame offsets:
#	150
#	20104
#	47662
#	65949
#	87341
#	104547
#	128573
#	141965
#	156247
#	176187
#	192699
#	212533
#	232260
#	255040
#	271830
#
# Disc length: 3938 seconds
#
# Revision: 2
# Processed by: cddbd v1.5.2PL0 Copyright (c) Steve Scherf et al.
# Submitted via: CDex 1.51
#
DISCID=e20f600f
DTITLE=Tom Shaka - Keep on Keepin' on
DYEAR=1999
DGENRE=Blues
TTITLE0=Bayou Boogie
TTITLE1=Rambler's Blues
TTITLE2=Fire on the delta
TTITLE3=Keep on Keepin' on
TTITLE4=Balky mule blues
TTITLE5=Down on Maxwell St.
TTITLE6=Resophonic rag
TTITLE7=12 gates to the city
TTITLE8=Blues blood
TTITLE9=Rough and Ready
TTITLE10=Terraplane Blues
TTITLE11=Losing Hand
TTITLE12=Downton Boogie
TTITLE13=Vegie Gumbo
TTITLE14=Homesick Blues
EXTD=YEAR: 1999
EXTT0=
EXTT1=
EXTT2=
EXTT3=
EXTT4=
EXTT5=
EXTT6=
EXTT7=
EXTT8=
EXTT9=
EXTT10=
EXTT11=
EXTT12=
EXTT13=
EXTT14=
PLAYORDER=
